<?xml version="1.0" encoding="utf-8"?>
<!-- Generator: Adobe Illustrator 24.1.0, SVG Export Plug-In . SVG Version: 6.00 Build 0)  -->
<svg version="1.1" id="Calque_1" xmlns="http://www.w3.org/2000/svg" xmlns:xlink="http://www.w3.org/1999/xlink" x="0px" y="0px"
	 viewBox="0 0 34 28" style="enable-background:new 0 0 34 28;" xml:space="preserve">
<g>
	<path d="M34,19.7l-2.8-5.4l0-0.6l-0.6,0.4c0,0,0,0,0,0l-5.4,3.6C25,17.8,25,18,25.1,18.2c0.1,0.2,0.3,0.2,0.5,0.1l4.8-3.2
		c-0.2,3.2-1.6,6.2-4,8.5c-2.4,2.4-5.6,3.7-9,3.7V5.5c1.4-0.2,2.5-1.3,2.5-2.7c0-1.5-1.3-2.8-2.8-2.8c-1.5,0-2.8,1.2-2.8,2.8
		c0,1.4,1.1,2.6,2.5,2.7v21.8c-3.4-0.1-6.6-1.5-9-3.9C5.5,21,4.1,18,4,14.8l4.9,3.3c0.2,0.1,0.4,0.1,0.5-0.1
		c0.1-0.2,0.1-0.4-0.1-0.5l-5.5-3.7c0,0,0,0,0,0l-0.2-0.1c0-0.1-0.1-0.2-0.2-0.2c-0.2-0.1-0.4,0-0.5,0.1L0,19
		c-0.1,0.2,0,0.4,0.1,0.5c0.1,0,0.1,0,0.2,0c0.1,0,0.2-0.1,0.3-0.2l2.7-4.8c0.1,3.5,1.5,6.8,3.9,9.3c2.6,2.6,6.1,4.1,9.8,4.1
		c0,0,0,0,0,0c0,0,0,0,0,0c0,0,0,0,0,0c0,0,0.1,0,0.1,0c3.7,0,7.1-1.4,9.7-3.9c2.4-2.3,3.8-5.2,4.1-8.4l2.3,4.3
		c0.1,0.1,0.2,0.2,0.3,0.2c0.1,0,0.1,0,0.2,0C34,20.1,34,19.9,34,19.7z M15,2.8c0-1.1,0.9-2.1,2.1-2.1c1.2,0,2.1,0.9,2.1,2.1
		c0,1.1-0.9,2.1-2.1,2.1C15.9,4.8,15,3.9,15,2.8z"/>
</g>
</svg>
