<?xml version="1.0" encoding="utf-8"?>
<!-- Generator: Adobe Illustrator 24.1.0, SVG Export Plug-In . SVG Version: 6.00 Build 0)  -->
<svg version="1.1" id="Calque_1" xmlns="http://www.w3.org/2000/svg" xmlns:xlink="http://www.w3.org/1999/xlink" x="0px" y="0px"
	 viewBox="0 0 50 50" style="enable-background:new 0 0 50 50;" xml:space="preserve">
<style type="text/css">
	.st0{fill:#4B858E;}
</style>
<g>
	<path class="st0" d="M37.4,49h-7.9V31.8l20.3-17.4C50,14.2,50,14,50,13.8c-0.1-0.2-0.3-0.3-0.5-0.3H17.7h0c0-0.1,0-0.1,0-0.2
		c-0.3-4.7-4.2-8.3-8.8-8.3C4,4.9,0,8.9,0,13.8s4,8.9,8.8,8.9c2.3,0,4.6-0.9,6.2-2.6l13.5,11.6V49h-7.9c-0.3,0-0.5,0.2-0.5,0.5
		c0,0.3,0.2,0.5,0.5,0.5h16.7c0.3,0,0.5-0.2,0.5-0.5C37.9,49.2,37.7,49,37.4,49z M32.4,28l-11.7-9.7h22.9L32.4,28z M48.2,14.5
		l-3.4,2.9H19.3c-0.2,0-0.4,0.1-0.5,0.3c-0.1,0.2,0,0.4,0.2,0.6l12.6,10.4l-2.5,2.1c0,0-0.1,0-0.1,0s-0.1,0-0.1,0l-19-16.4h7.7H48.2
		z M13.5,10.1c0.8,0.9,1.3,2.1,1.4,3.4h-4.7L13.5,10.1z M9.3,12.9v-5c1.3,0.1,2.5,0.7,3.5,1.5L9.3,12.9z M8.3,12.8L4.9,9.3
		C5.9,8.5,7,8,8.3,7.9V12.8z M4.2,10l3.4,3.4H2.8C2.9,12.2,3.4,11,4.2,10z M7.8,14.5L4.3,18c-0.8-1-1.4-2.2-1.5-3.5H7.8z M8.3,15.3
		V20c-1.3-0.1-2.4-0.6-3.3-1.4L8.3,15.3z M9.3,15.2l3.7,3.1c-1,1-2.3,1.5-3.7,1.7V15.2z M8.8,21.8c-4.3,0-7.9-3.6-7.9-7.9
		s3.5-7.9,7.9-7.9c4.1,0,7.6,3.3,7.8,7.4c0,0.1,0,0.1,0,0.2h-0.8c-0.3-3.7-3.3-6.6-7-6.6c-3.9,0-7,3.2-7,7.1s3.1,7.1,7,7.1
		c1.8,0,3.6-0.7,4.9-2l0.6,0.5C12.8,21,10.9,21.8,8.8,21.8z"/>
	<path class="st0" d="M33.9,5.9c1.6,0,2.9-1.3,2.9-2.9c0-1.6-1.3-3-2.9-3S31,1.3,31,3C31,4.6,32.3,5.9,33.9,5.9z M33.9,1.2
		c1,0,1.7,0.8,1.7,1.8c0,1-0.8,1.8-1.7,1.8S32.2,3.9,32.2,3C32.2,2,33,1.2,33.9,1.2z"/>
	<path class="st0" d="M47.1,29.8c-1.6,0-2.9,1.3-2.9,3c0,1.6,1.3,2.9,2.9,2.9s2.9-1.3,2.9-2.9C50,31.1,48.7,29.8,47.1,29.8z
		 M47.1,34.5c-1,0-1.7-0.8-1.7-1.8c0-1,0.8-1.8,1.7-1.8s1.7,0.8,1.7,1.8C48.8,33.7,48,34.5,47.1,34.5z"/>
	<path class="st0" d="M12.6,38.3c-1.3,0-2.4,1.1-2.4,2.5c0,1.4,1.1,2.5,2.4,2.5s2.4-1.1,2.4-2.5C15,39.4,13.9,38.3,12.6,38.3z
		 M12.6,42.2c-0.8,0-1.5-0.7-1.5-1.5c0-0.8,0.7-1.5,1.5-1.5c0.8,0,1.5,0.7,1.5,1.5C14.1,41.5,13.4,42.2,12.6,42.2z"/>
</g>
</svg>
