<?xml version="1.0" encoding="utf-8"?>
<!-- Generator: Adobe Illustrator 24.1.0, SVG Export Plug-In . SVG Version: 6.00 Build 0)  -->
<svg version="1.1" id="Capa_1" xmlns="http://www.w3.org/2000/svg" xmlns:xlink="http://www.w3.org/1999/xlink" x="0px" y="0px"
	 viewBox="0 0 32.87 35.9" style="enable-background:new 0 0 32.87 35.9;" xml:space="preserve">
<g>
	<path d="M7.66,16.96c-0.28,0-0.5,0.22-0.5,0.5v12.92c0,0.28,0.22,0.5,0.5,0.5s0.5-0.22,0.5-0.5V17.46
		C8.16,17.18,7.94,16.96,7.66,16.96z"/>
	<path d="M11.54,16.96c-0.28,0-0.5,0.22-0.5,0.5v12.92c0,0.28,0.22,0.5,0.5,0.5s0.5-0.22,0.5-0.5V17.46
		C12.04,17.18,11.81,16.96,11.54,16.96z"/>
	<path d="M15.41,16.96c-0.28,0-0.5,0.22-0.5,0.5v12.92c0,0.28,0.22,0.5,0.5,0.5s0.5-0.22,0.5-0.5V17.46
		C15.91,17.18,15.69,16.96,15.41,16.96z"/>
	<path d="M19.28,16.96c-0.28,0-0.5,0.22-0.5,0.5v12.92c0,0.28,0.22,0.5,0.5,0.5s0.5-0.22,0.5-0.5V17.46
		C19.78,17.18,19.56,16.96,19.28,16.96z"/>
	<path d="M31.57,16c-1.41-1.34-3.43-1.26-3.5-1.26h-2.64v-4.57c0.79-0.67,1.28-1.65,1.28-2.77c0-2.12-1.72-3.84-3.84-3.84
		c-0.63,0-1.24,0.16-1.79,0.45c-0.57-1.6-2.09-2.7-3.84-2.7c-1.28,0-2.46,0.59-3.22,1.57C13.1,1.12,11.3,0,9.27,0
		c-2.98,0-5.4,2.42-5.4,5.4c0,0.09,0,0.18,0.01,0.27c-0.33-0.14-0.7-0.21-1.07-0.21C1.26,5.46,0,6.72,0,8.27
		c0,1.22,0.79,2.25,1.87,2.64v19.86c0,2.83,2.26,5.13,5.05,5.13h13.46c2.62,0,4.76-2.05,5-4.66c7.37-0.29,7.48-7.26,7.48-7.33v-4.49
		C32.87,17.97,32.43,16.82,31.57,16z M24.43,30.77c0,2.28-1.82,4.13-4.05,4.13H6.92c-2.23,0-4.05-1.85-4.05-4.13V11.08h4.94v2.67
		c0,1.1,0.89,1.99,1.99,1.99c1.1,0,1.99-0.89,1.99-1.99l0.01-2.65h11.08c0.56,0,1.08-0.11,1.56-0.31V30.77z M22.87,10.1H11.3
		c-0.28,0-0.5,0.22-0.5,0.5l-0.01,3.15c0,0,0,0,0,0c0,0.54-0.44,0.99-0.99,0.99c-0.55,0-0.99-0.44-0.99-0.99v-3.17
		c0-0.28-0.22-0.5-0.5-0.5h-5.5c-1,0-1.81-0.81-1.81-1.81s0.81-1.81,1.81-1.81c0.55,0,1.06,0.25,1.41,0.69
		c0.15,0.19,0.41,0.24,0.62,0.13c0.21-0.11,0.32-0.36,0.24-0.59C4.94,6.21,4.87,5.8,4.87,5.4c0-2.43,1.97-4.4,4.4-4.4
		c1.94,0,3.63,1.26,4.19,3.14c0.06,0.2,0.24,0.34,0.45,0.35c0.21,0.02,0.41-0.11,0.49-0.3c0.49-1.14,1.6-1.88,2.85-1.88
		c1.51,0,2.79,1.09,3.04,2.58c0.03,0.18,0.15,0.32,0.32,0.39c0.17,0.06,0.35,0.03,0.49-0.08c0.52-0.42,1.14-0.65,1.78-0.65
		c1.57,0,2.84,1.27,2.84,2.84C25.72,8.94,24.5,10.1,22.87,10.1z M25.43,17.95C25.44,17.95,25.44,17.95,25.43,17.95l2.2,0
		c0.02,0,0.88-0.04,1.4,0.46c0.28,0.27,0.42,0.65,0.42,1.16l0,3.78c0,0.02,0.17,2.02-1.03,3.32c-0.68,0.74-1.69,1.12-3,1.15V17.95z
		 M31.87,23.91c0,0.25-0.09,6.03-6.43,6.33v-1.43c1.61-0.03,2.87-0.52,3.75-1.48c1.49-1.63,1.29-3.99,1.28-4.04v-3.73
		c0-0.79-0.25-1.43-0.74-1.89c-0.84-0.79-2.09-0.72-2.11-0.72h-2.17c0,0,0,0-0.01,0v-1.21l2.67,0c0.02,0,1.68-0.07,2.78,0.98
		c0.66,0.62,0.99,1.53,0.99,2.71V23.91z"/>
</g>
</svg>
