<?xml version="1.0" encoding="utf-8"?>
<!-- Generator: Adobe Illustrator 24.1.0, SVG Export Plug-In . SVG Version: 6.00 Build 0)  -->
<svg version="1.1" id="Capa_1" xmlns="http://www.w3.org/2000/svg" xmlns:xlink="http://www.w3.org/1999/xlink" x="0px" y="0px"
	 viewBox="0 0 52.92 38.85" style="enable-background:new 0 0 52.92 38.85;" xml:space="preserve">
<path d="M52.4,11.45c-0.08,0-0.16,0.02-0.23,0.06c-0.03,0-0.05-0.02-0.08-0.02h-5.86v-0.14c0-0.05-0.06-5.25-5.25-5.25h-8.15
	C32.69,2.72,29.89,0,26.46,0c-3.43,0-6.23,2.72-6.37,6.11h-8.87c-0.05,0-5.24,0.06-5.24,5.25v0.14H0.76c-0.01,0-0.02,0.01-0.03,0.01
	c-0.06-0.03-0.13-0.05-0.21-0.05C0.23,11.45,0,11.69,0,11.97c0,3.38,2.64,6.15,5.97,6.37V33.6c0,0.05,0.06,5.24,5.24,5.24h29.77
	c0.05,0,5.25-0.06,5.25-5.24V18.36c3.7-0.06,6.69-2.9,6.69-6.38C52.92,11.69,52.69,11.45,52.4,11.45z M26.46,1.04
	c2.85,0,5.17,2.25,5.32,5.07H21.15C21.29,3.29,23.61,1.04,26.46,1.04z M7.02,11.36c0-4.13,4.01-4.2,4.2-4.2h29.77
	c4.14,0,4.2,4.03,4.2,4.2v0.14H7.02V11.36z M1.1,12.54h4.87v4.74C3.41,17.08,1.37,15.08,1.1,12.54z M40.99,37.8H11.22
	c-4.13,0-4.2-4.03-4.2-4.2V12.54h38.18V33.6C45.19,37.74,41.16,37.8,40.99,37.8z M46.24,17.31v-4.78h5.61
	C51.55,15.18,49.16,17.25,46.24,17.31z"/>
</svg>
