<?xml version="1.0" encoding="utf-8"?>
<!-- Generator: Adobe Illustrator 24.1.0, SVG Export Plug-In . SVG Version: 6.00 Build 0)  -->
<svg version="1.1" id="Capa_1" xmlns="http://www.w3.org/2000/svg" xmlns:xlink="http://www.w3.org/1999/xlink" x="0px" y="0px"
	 viewBox="0 0 50.97 50.35" style="enable-background:new 0 0 50.97 50.35;" xml:space="preserve">
<g>
	<path d="M38.13,49.35h-8V31.97l20.67-17.59c0.16-0.14,0.22-0.36,0.15-0.55c-0.07-0.2-0.26-0.33-0.47-0.33H18.01H18
		c0-0.07,0-0.15-0.01-0.22C17.68,8.56,13.74,4.86,9,4.86c-4.96,0-9,4.04-9,9s4.04,9,9,9c2.41,0,4.64-0.94,6.34-2.62l13.78,11.73
		v17.38h-8c-0.28,0-0.5,0.22-0.5,0.5s0.22,0.5,0.5,0.5h17.01c0.28,0,0.5-0.22,0.5-0.5S38.4,49.35,38.13,49.35z M33.01,28.2
		l-11.93-9.75h23.38L33.01,28.2z M49.11,14.5l-3.47,2.95H19.68c-0.21,0-0.4,0.13-0.47,0.33c-0.07,0.2-0.01,0.42,0.15,0.56
		l12.88,10.52L29.72,31c-0.03-0.01-0.06-0.02-0.1-0.02s-0.07,0.01-0.1,0.02L10.14,14.5h7.87H49.11z M13.75,10.09
		c0.78,0.94,1.28,2.11,1.38,3.4h-4.79L13.75,10.09z M9.5,12.92V7.87c1.35,0.11,2.58,0.66,3.55,1.51L9.5,12.92z M8.5,12.79L5.02,9.31
		C5.98,8.5,7.18,7.98,8.5,7.87V12.79z M4.32,10.02L7.8,13.5H2.88C2.98,12.18,3.51,10.97,4.32,10.02z M7.93,14.5l-3.55,3.55
		c-0.85-0.97-1.4-2.19-1.51-3.55H7.93z M8.5,15.34v4.79c-1.29-0.1-2.47-0.6-3.41-1.38L8.5,15.34z M9.5,15.27l3.73,3.18
		c-1.03,0.98-2.33,1.56-3.73,1.67V15.27z M9,21.87c-4.41,0-8-3.59-8-8s3.59-8,8-8c4.21,0,7.71,3.28,7.99,7.48
		c0,0.05,0,0.11,0.01,0.16h-0.86C15.88,9.76,12.75,6.84,9,6.84c-3.94,0-7.15,3.21-7.15,7.15S5.06,21.15,9,21.15
		c1.87,0,3.67-0.75,5-2.05l0.58,0.49C13.08,21.06,11.12,21.87,9,21.87z"/>
	<path d="M34.6,5.75c1.58,0,2.88-1.29,2.88-2.88C37.48,1.29,36.19,0,34.6,0c-1.59,0-2.88,1.29-2.88,2.88
		C31.73,4.46,33.02,5.75,34.6,5.75z M34.6,1c1.03,0,1.88,0.84,1.88,1.88c0,1.03-0.84,1.88-1.88,1.88c-1.04,0-1.88-0.84-1.88-1.88
		C32.73,1.84,33.57,1,34.6,1z"/>
	<path d="M47.99,30.07c-1.58,0-2.88,1.29-2.88,2.88c0,1.59,1.29,2.88,2.88,2.88c1.59,0,2.88-1.29,2.88-2.88
		C50.87,31.36,49.58,30.07,47.99,30.07z M47.99,34.82c-1.03,0-1.88-0.84-1.88-1.88c0-1.04,0.84-1.88,1.88-1.88
		c1.04,0,1.88,0.84,1.88,1.88C49.87,33.98,49.03,34.82,47.99,34.82z"/>
	<path d="M12.85,38.51c-1.37,0-2.48,1.11-2.48,2.48s1.11,2.48,2.48,2.48c1.37,0,2.48-1.11,2.48-2.48S14.21,38.51,12.85,38.51z
		 M12.85,42.47c-0.82,0-1.48-0.66-1.48-1.48s0.66-1.48,1.48-1.48c0.82,0,1.48,0.66,1.48,1.48S13.66,42.47,12.85,42.47z"/>
</g>
</svg>
