<?xml version="1.0" encoding="utf-8"?>
<!-- Generator: Adobe Illustrator 24.1.0, SVG Export Plug-In . SVG Version: 6.00 Build 0)  -->
<svg version="1.1" id="Capa_1" xmlns="http://www.w3.org/2000/svg" xmlns:xlink="http://www.w3.org/1999/xlink" x="0px" y="0px"
	 viewBox="0 0 20.09 34.81" style="enable-background:new 0 0 20.09 34.81;" xml:space="preserve">
<g>
	<path d="M20.09,10.86c0-0.1-0.03-0.19-0.08-0.28l-1.94-3.09l1.87-1.89c0.2-0.2,0.2-0.53,0-0.74c-0.21-0.2-0.54-0.2-0.74,0
		l-1.7,1.72l-1.14-1.81v-1.9h1.05c0.29,0,0.52-0.23,0.52-0.52s-0.23-0.52-0.52-0.52h-1.57h-1.97v-1.3c0-0.29-0.23-0.52-0.52-0.52
		H7.19C6.91,0,6.67,0.23,6.67,0.52v1.3H4.78H3.21c-0.29,0-0.52,0.23-0.52,0.52s0.23,0.52,0.52,0.52h1.05v1.9L2.92,6.91L0.89,4.87
		c-0.2-0.21-0.53-0.21-0.74,0c-0.21,0.2-0.21,0.53,0,0.74l2.16,2.19C2.32,7.8,2.34,7.8,2.35,7.81l-1.74,2.77
		c-0.05,0.08-0.08,0.18-0.08,0.28v23.43c0,0.29,0.23,0.52,0.52,0.52h18.52c0.29,0,0.52-0.23,0.52-0.52V10.86z M7.71,1.04h5.1v0.78
		h-5.1V1.04z M1.57,33.77V11.01L5.23,5.2c0.05-0.08,0.08-0.18,0.08-0.28V2.87h10v2.05c0,0.1,0.03,0.19,0.08,0.28l3.65,5.81v22.76
		H1.57z"/>
	<path d="M3.21,15.79h1.05l1.4,4.36c0.07,0.22,0.27,0.36,0.5,0.36h8.22c0.23,0,0.44-0.16,0.5-0.38l1.22-4.34h1.03
		c0.29,0,0.52-0.23,0.52-0.52s-0.23-0.52-0.52-0.52h-2.85c-0.29,0-0.52,0.23-0.52,0.52s0.23,0.52,0.52,0.52h0.74l-1.03,3.68H6.53
		l-1.18-3.68h0.7c0.29,0,0.52-0.23,0.52-0.52s-0.23-0.52-0.52-0.52H3.21c-0.29,0-0.52,0.23-0.52,0.52S2.92,15.79,3.21,15.79z"/>
</g>
</svg>
