<?xml version="1.0" encoding="utf-8"?>
<!-- Generator: Adobe Illustrator 24.1.0, SVG Export Plug-In . SVG Version: 6.00 Build 0)  -->
<svg version="1.1" id="Calque_1" xmlns="http://www.w3.org/2000/svg" xmlns:xlink="http://www.w3.org/1999/xlink" x="0px" y="0px"
	 viewBox="0 0 100 68" style="enable-background:new 0 0 100 68;" xml:space="preserve">
<style type="text/css">
	.st0{fill:#4B858E;}
</style>
<g>
	<g>
		<path class="st0" d="M83.79,68c-2.09,0-4.19-0.37-6.41-1.14c-1.96-0.67-3.94-1.64-6.22-3.03c-4.08-2.53-8.24-5.99-11.9-9.04
			c-0.37-0.31-0.74-0.63-1.11-0.94c-0.33-0.27-0.65-0.54-0.97-0.81c-5.9,4.61-14.04,9.82-24.84,9.82c-4.41,0-8.64-0.85-12.59-2.54
			c-3.85-1.63-7.31-3.98-10.29-6.98c-2.93-2.94-5.26-6.41-6.93-10.31C0.85,38.97,0,34.71,0,30.36s0.85-8.6,2.52-12.66
			c1.69-3.94,4.02-7.42,6.94-10.35c0.55-0.55,1.36-1.19,2.3-1.86c2.21-1.86,4.84-3.59,7.97-5.11c0.89-0.43,1.03-0.49,1.18-0.2
			c0.16,0.3,0.16,0.3-1.49,1.26c-1.77,1.04-4.91,2.88-7.24,4.53C0.04,16.19,0.85,30.18,0.86,30.34l0,0.02
			c0,17.44,14.12,31.63,31.47,31.63c10.45,0,18.37-5.03,24.15-9.52c-4.32-3.54-8.92-7.03-13.41-8.82
			c-6.06-2.43-11.3-1.63-16.51,2.54l-0.29,0.23l-0.44-0.74l0.22-0.17c1.49-1.19,2.98-2.11,4.43-2.75c1.43-0.62,2.91-1.04,4.38-1.23
			c2.74-0.31,5.53,0.12,8.55,1.3c2.59,1.06,5.28,2.64,8.24,4.81c1.84,1.31,3.71,2.82,5.53,4.28c2.04-1.62,4-3.3,5.89-4.93l0.47-0.41
			c3.35-2.93,6.52-5.69,9.77-7.74c3.75-2.36,7.08-3.46,10.47-3.46c2.21,0,4.34,0.44,6.32,1.3c1.91,0.81,3.64,1.98,5.13,3.48
			c1.49,1.5,2.66,3.24,3.47,5.17c0.86,1.99,1.29,4.13,1.29,6.36c0,2.26-0.44,4.4-1.29,6.36c-0.78,1.9-1.94,3.64-3.46,5.16
			c-1.4,1.45-3.13,2.64-5.13,3.52C88.09,67.58,85.97,68,83.79,68z M57.87,52.48c0.65,0.55,1.29,1.1,1.94,1.62l0,0
			c7.66,6.4,15.58,13.03,23.97,13.03c8.47,0,15.35-6.93,15.35-15.45c0-2.11-0.41-4.13-1.21-5.99c-0.77-1.86-1.88-3.51-3.29-4.93
			c-1.47-1.44-3.12-2.56-4.9-3.31c-1.85-0.81-3.86-1.21-5.96-1.21c-3.17,0-6.35,1.06-10.02,3.33c-3.33,2.12-6.62,4.99-9.81,7.78
			C61.82,49.23,59.83,50.91,57.87,52.48z"/>
	</g>
</g>
</svg>
