<?xml version="1.0" encoding="utf-8"?>
<!-- Generator: Adobe Illustrator 24.1.0, SVG Export Plug-In . SVG Version: 6.00 Build 0)  -->
<svg version="1.1" id="Capa_1" xmlns="http://www.w3.org/2000/svg" xmlns:xlink="http://www.w3.org/1999/xlink" x="0px" y="0px"
	 viewBox="0 0 33.38 43.88" style="enable-background:new 0 0 33.38 43.88;" xml:space="preserve">
<path d="M16.49,22.17c0.16-0.07,0.23-0.26,0.16-0.41c-0.15-0.34-0.22-0.71-0.22-1.11c0.01-0.97,0.44-1.69,0.71-2.05
	c0.26,0.37,0.66,1.09,0.65,2.07c-0.01,0.4-0.09,0.77-0.25,1.1c-0.08,0.16-0.01,0.34,0.14,0.42c0.16,0.08,0.34,0.01,0.42-0.15
	c0.2-0.42,0.31-0.88,0.32-1.36c0.02-1.7-1-2.74-1.04-2.78c-0.06-0.06-0.14-0.09-0.22-0.09c-0.08,0-0.16,0.03-0.22,0.08
	c-0.04,0.04-1.1,1.05-1.13,2.75c-0.01,0.49,0.09,0.95,0.28,1.37C16.14,22.17,16.33,22.24,16.49,22.17z"/>
<path d="M17.83,25.16c-0.17,0.03-0.28,0.19-0.25,0.36c0.03,0.15,0.16,0.26,0.3,0.26c0.02,0,0.04,0,0.06,0
	c0.71-0.13,1.35-0.45,1.84-0.95c1.19-1.2,0.88-2.86,0.86-2.93c-0.03-0.14-0.15-0.25-0.3-0.25h0c-0.06,0-1.53-0.01-2.72,1.19
	c-0.23,0.23-0.42,0.48-0.56,0.74c-0.14-0.26-0.31-0.51-0.54-0.75c-1.16-1.24-2.62-1.27-2.69-1.27c-0.15,0-0.28,0.1-0.31,0.24
	c-0.02,0.07-0.38,1.72,0.78,2.95c0.48,0.51,1.1,0.85,1.81,1c0.02,0,0.04,0.01,0.06,0.01c0.15,0,0.28-0.1,0.31-0.25
	c0.03-0.17-0.07-0.33-0.24-0.37c-0.59-0.12-1.09-0.39-1.49-0.81c-0.68-0.72-0.7-1.66-0.66-2.11c0.43,0.07,1.27,0.3,1.97,1.04
	c0.54,0.58,0.66,1.12,0.7,1.48c0,0,0,0,0,0l-0.03,2.05c-0.08-0.1-0.17-0.21-0.26-0.31c-1.16-1.24-2.62-1.27-2.68-1.27
	c-0.15,0-0.28,0.1-0.31,0.24c-0.02,0.07-0.38,1.72,0.78,2.95c0.47,0.51,1.1,0.85,1.81,1c0.02,0,0.04,0.01,0.06,0.01
	c0.15,0,0.28-0.1,0.31-0.25c0.03-0.17-0.08-0.34-0.24-0.37c-0.59-0.12-1.09-0.4-1.49-0.82c-0.68-0.72-0.7-1.65-0.66-2.11
	c0.42,0.07,1.27,0.3,1.97,1.05c0.54,0.57,0.66,1.12,0.7,1.48c0,0,0,0,0,0l-0.03,2.14c-0.08-0.1-0.16-0.21-0.26-0.31
	c-1.16-1.23-2.62-1.27-2.69-1.27c-0.15,0-0.28,0.1-0.31,0.24c-0.02,0.07-0.38,1.72,0.78,2.95c0.48,0.51,1.1,0.85,1.81,1
	c0.02,0,0.04,0.01,0.06,0.01c0.15,0,0.28-0.1,0.31-0.25c0.04-0.17-0.07-0.34-0.24-0.37c-0.59-0.12-1.09-0.4-1.49-0.82
	c-0.68-0.72-0.7-1.66-0.66-2.11c0.42,0.07,1.27,0.3,1.97,1.05c0.54,0.57,0.66,1.12,0.69,1.48c0,0,0,0,0,0l-0.08,5.58
	c0,0.16,0.12,0.3,0.28,0.32c0.16-0.01,0.29-0.15,0.29-0.31l0.08-5.58c0,0,0,0,0,0c0.05-0.36,0.18-0.9,0.74-1.46
	c0.72-0.72,1.57-0.93,2-0.99c0.03,0.46-0.02,1.39-0.72,2.09c-0.41,0.41-0.91,0.67-1.51,0.77c-0.17,0.03-0.28,0.19-0.25,0.36
	c0.03,0.15,0.16,0.25,0.3,0.26c0.02,0,0.04,0,0.06,0c0.71-0.13,1.35-0.45,1.84-0.95c1.19-1.2,0.88-2.86,0.86-2.93
	c-0.03-0.15-0.16-0.25-0.3-0.25c-0.06,0-1.52-0.01-2.72,1.19c-0.1,0.1-0.19,0.2-0.27,0.3l0.03-2.14c0,0,0,0,0,0
	c0.05-0.36,0.18-0.9,0.74-1.46c0.72-0.72,1.57-0.93,2-0.99c0.03,0.46-0.02,1.39-0.72,2.09c-0.41,0.41-0.91,0.67-1.51,0.77
	c-0.17,0.03-0.28,0.19-0.25,0.36c0.03,0.15,0.16,0.26,0.3,0.26c0.02,0,0.04,0,0.06,0c0.71-0.13,1.35-0.45,1.84-0.95
	c1.19-1.2,0.88-2.86,0.86-2.93c-0.03-0.14-0.15-0.25-0.3-0.25h0c-0.06,0-1.52-0.01-2.72,1.19c-0.1,0.1-0.19,0.2-0.27,0.3l0.03-2.05
	c0,0,0,0,0,0c0.05-0.36,0.18-0.9,0.74-1.46c0.72-0.72,1.57-0.93,2-0.98c0.03,0.46-0.02,1.39-0.72,2.09
	C18.93,24.79,18.43,25.05,17.83,25.16z"/>
<path d="M32.98,39.9c-2.44-0.5-3.83-10.12-4.12-16.06c-0.2-6.94-3.99-10.13-7.4-11.59c0.17-0.29,0.28-0.65,0.28-1.05
	c0-0.94-0.56-1.67-1.29-1.72l2.97-4.83c0.12-0.19,0.09-0.43-0.06-0.6c-1.92-2.1-4.27-2.07-5.39-1.91V1.39
	c0-0.16-0.08-0.31-0.21-0.41c-3.7-2.67-8.05,0.95-8.23,1.11C9.34,2.24,9.29,2.49,9.4,2.7l3.52,6.78h-0.26
	c-0.76,0-1.36,0.76-1.36,1.72c0,0.46,0.14,0.86,0.36,1.17c-3.35,1.51-6.94,4.71-7.14,11.46C4.23,29.78,2.84,39.4,0.4,39.9
	c-0.25,0.05-0.43,0.29-0.4,0.55c0.03,0.26,0.27,0.44,0.51,0.44c0.04-0.01,4.12-0.13,8.88,1.58c0.17,0.06,4.15,1.4,6.92,1.4
	c0.11,0,0.22,0,0.32-0.01c0.02,0,0.03-0.01,0.04-0.01c0.02,0,0.03,0.01,0.05,0.01c0.11,0,0.21,0.01,0.32,0.01
	c2.76,0,6.74-1.34,6.92-1.41c4.76-1.71,8.83-1.58,8.87-1.58c0.23,0,0.48-0.18,0.51-0.44S33.24,39.96,32.98,39.9z M20.73,11.21
	c0,0.45-0.23,0.72-0.36,0.72h-1.09c-0.01-0.31,0.08-0.83,0.52-1.45h0.57C20.5,10.48,20.73,10.76,20.73,11.21z M14.59,11.93
	c-0.01-0.31,0.07-0.83,0.52-1.45h1.12c-0.28,0.57-0.36,1.07-0.35,1.45H14.59z M16.87,11.93c-0.01-0.31,0.08-0.83,0.52-1.45h1.25
	c-0.28,0.57-0.36,1.07-0.35,1.45H16.87z M22.35,4.47l-3.08,5.01h-1.32V3.17C18.74,3.03,20.7,2.89,22.35,4.47z M10.48,2.61
	c0.96-0.7,3.96-2.57,6.48-0.96v7.83h-2.91L10.48,2.61z M12.66,10.48h1.29c-0.28,0.57-0.36,1.07-0.35,1.45h-0.94
	c-0.14,0-0.36-0.29-0.36-0.72C12.3,10.77,12.52,10.48,12.66,10.48z M23.66,41.53c-0.04,0.01-4.31,1.44-6.88,1.34
	c-0.03,0-0.05,0.01-0.08,0.01c-0.03-0.01-0.07-0.02-0.1-0.02c-2.61,0.11-6.83-1.33-6.87-1.34c-3.2-1.15-6.06-1.5-7.73-1.6
	c2.8-3.42,3.45-14.6,3.52-16.05c0.19-6.83,4.12-9.72,7.4-10.95h7.45c0.02,0,0.04-0.01,0.06-0.01c3.28,1.22,7.23,4.11,7.42,10.97
	c0.07,1.44,0.72,12.62,3.52,16.04C29.71,40.03,26.85,40.38,23.66,41.53z"/>
</svg>
