<?xml version="1.0" encoding="utf-8"?>
<!-- Generator: Adobe Illustrator 24.1.0, SVG Export Plug-In . SVG Version: 6.00 Build 0)  -->
<svg version="1.1" id="Calque_1" xmlns="http://www.w3.org/2000/svg" xmlns:xlink="http://www.w3.org/1999/xlink" x="0px" y="0px"
	 viewBox="0 0 9.64 18.26" style="enable-background:new 0 0 9.64 18.26;" xml:space="preserve">
<path d="M9.39,17.78H4.93v-5.01c0-1.91,2.44-3.69,2.47-3.71c0.02-0.01,0.03-0.02,0.04-0.03c1.63-1.2,1.79-3.52,1.81-3.65V0.24
	C9.25,0.11,9.14,0,9.01,0C8.87,0,8.76,0.11,8.76,0.24l0,4.83H0.56V0.24C0.56,0.11,0.45,0,0.31,0C0.18,0,0.07,0.11,0.07,0.24l0,5.28
	c0.01,0.1,0.37,2.38,1.8,3.67C1.89,9.2,1.9,9.21,1.92,9.22c0.02,0.01,2.52,2.07,2.52,3.77v4.79h-4.2C0.11,17.78,0,17.89,0,18.02
	s0.11,0.24,0.25,0.24h9.15c0.14,0,0.25-0.11,0.25-0.24S9.53,17.78,9.39,17.78z M2.19,8.82C1.03,7.75,0.64,5.89,0.57,5.55h8.17
	C8.66,6.1,8.33,7.72,7.13,8.66C6.89,8.8,5.2,10.11,4.64,11.75C3.98,10.26,2.42,8.95,2.19,8.82z"/>
</svg>
