<?xml version="1.0" encoding="utf-8"?>
<!-- Generator: Adobe Illustrator 24.1.0, SVG Export Plug-In . SVG Version: 6.00 Build 0)  -->
<svg version="1.1" id="Calque_1" xmlns="http://www.w3.org/2000/svg" xmlns:xlink="http://www.w3.org/1999/xlink" x="0px" y="0px"
	 viewBox="0 0 53.43 81.94" style="enable-background:new 0 0 53.43 81.94;" xml:space="preserve">
<path d="M53.28,10.05L30.61,0.02c-0.08-0.03-0.16-0.03-0.23,0.01c-0.07,0.04-0.11,0.12-0.12,0.2l-2.55,35.26H2.01v0.01L0.75,21.29
	c-0.02-0.21-0.21-0.36-0.41-0.34c-0.21,0.02-0.36,0.2-0.34,0.41L5.35,81.6c0.02,0.19,0.18,0.34,0.37,0.34h30.21
	c0.19,0,0.36-0.15,0.37-0.34l5.35-60.24c0.02-0.21-0.13-0.39-0.34-0.41c-0.22-0.01-0.39,0.13-0.41,0.34l-1.26,14.2H28.21l2.52-34.87
	l22.35,9.89c0.13,0.06,0.27,0,0.33-0.13S53.41,10.11,53.28,10.05z M39.58,36.24l-3.99,44.95H6.07L2.08,36.24h25.58L25.4,67.35
	c-0.01,0.14,0.09,0.26,0.23,0.27c0.01,0,0.01,0,0.02,0c0.13,0,0.24-0.1,0.25-0.23l2.25-31.15H39.58z"/>
</svg>
