<?xml version="1.0" encoding="utf-8"?>
<!-- Generator: Adobe Illustrator 24.1.0, SVG Export Plug-In . SVG Version: 6.00 Build 0)  -->
<svg version="1.1" id="Calque_1" xmlns="http://www.w3.org/2000/svg" xmlns:xlink="http://www.w3.org/1999/xlink" x="0px" y="0px"
	 viewBox="0 0 40.52 42.17" style="enable-background:new 0 0 40.52 42.17;" xml:space="preserve">
<path d="M34.35,20.23c-3.62-3.11-3.73-7.66-3.74-7.66V0.55c0-0.3-0.25-0.55-0.56-0.55c-0.31,0-0.56,0.25-0.56,0.55l0.01,12.1
	c0.03,0.22,0.25,5.32,4.14,8.43c0.03,0.03,0.06,0.05,0.1,0.07c0.06,0.03,5.66,4.33,5.66,8.67v1.65H11.31v-2.18
	c0-4.38,5.61-8.47,5.66-8.5c0.03-0.02,0.07-0.04,0.1-0.07c3.74-2.76,4.11-8.07,4.15-8.37V0.55c0-0.3-0.25-0.55-0.56-0.55
	c-0.31,0-0.56,0.25-0.56,0.55l0.01,11.08H1.28V0.55C1.28,0.25,1.03,0,0.71,0C0.4,0,0.15,0.25,0.15,0.55l0.01,12.1
	c0.03,0.22,0.86,5.46,4.14,8.43c0.03,0.03,0.07,0.05,0.11,0.08c0.06,0.03,5.78,4.75,5.78,8.64v10.99H0.56
	C0.25,40.78,0,41.02,0,41.33s0.25,0.55,0.56,0.55h20.98c0.31,0,0.56-0.25,0.56-0.55s-0.25-0.55-0.56-0.55H11.31v-8.21h28.08v9.04
	c0,0.3,0.25,0.55,0.56,0.55c0.31,0,0.56-0.25,0.56-0.55v-11.8C40.52,24.63,35.01,20.62,34.35,20.23z M5.02,20.23
	c-2.63-2.43-3.54-6.64-3.71-7.49h18.73c-0.19,1.29-0.96,4.99-3.68,7.13c-0.55,0.32-4.43,3.29-5.74,7.04
	C9.1,23.5,5.55,20.54,5.02,20.23z"/>
</svg>
