<?xml version="1.0" encoding="utf-8"?>
<!-- Generator: Adobe Illustrator 24.1.0, SVG Export Plug-In . SVG Version: 6.00 Build 0)  -->
<svg version="1.1" id="Capa_1" xmlns="http://www.w3.org/2000/svg" xmlns:xlink="http://www.w3.org/1999/xlink" x="0px" y="0px"
	 viewBox="0 0 28.76 41.9" style="enable-background:new 0 0 28.76 41.9;" xml:space="preserve">
<path d="M28.26,31.53H10.03V5.01C10.03,2.25,7.78,0,5.01,0C2.25,0,0,2.25,0,5.01c0,0.28,0.22,0.5,0.5,0.5S1,5.29,1,5.01
	C1,2.8,2.8,1,5.01,1s4.01,1.8,4.01,4.01v27.02c0,5.44,4.43,9.87,9.87,9.87c5.44,0,9.87-4.43,9.87-9.87
	C28.76,31.75,28.54,31.53,28.26,31.53z M18.89,40.9c-4.72,0-8.59-3.71-8.85-8.37h17.71C27.49,37.19,23.62,40.9,18.89,40.9z"/>
</svg>
