<?xml version="1.0" encoding="utf-8"?>
<!-- Generator: Adobe Illustrator 24.1.0, SVG Export Plug-In . SVG Version: 6.00 Build 0)  -->
<svg version="1.1" id="Capa_1" xmlns="http://www.w3.org/2000/svg" xmlns:xlink="http://www.w3.org/1999/xlink" x="0px" y="0px"
	 viewBox="0 0 43.55 38.28" style="enable-background:new 0 0 43.55 38.28;" xml:space="preserve">
<g>
	<path d="M21.79,20.84c-0.29,0-0.52,0.23-0.52,0.52v3.21c0,0.29,0.23,0.52,0.52,0.52s0.52-0.23,0.52-0.52v-3.21
		C22.31,21.07,22.08,20.84,21.79,20.84z"/>
	<path d="M21.79,30.17c-0.29,0-0.52,0.23-0.52,0.52v3.21c0,0.29,0.23,0.52,0.52,0.52s0.52-0.23,0.52-0.52v-3.21
		C22.31,30.4,22.08,30.17,21.79,30.17z"/>
	<path d="M27.6,16.83h4.05c0.29,0,0.52-0.23,0.52-0.52v-4.82c0-0.29-0.23-0.52-0.52-0.52h-4.3V6.74c0.03-0.07,0.05-0.14,0.05-0.21
		s-0.02-0.15-0.05-0.21V5.82c0-3.21-2.54-5.82-5.66-5.82c-3.12,0-5.66,2.61-5.66,5.82v5.14h-4.1c-0.29,0-0.52,0.23-0.52,0.52v4.82
		c0,0.29,0.23,0.52,0.52,0.52h3.89l-4.6,20.82c-0.06,0.28,0.12,0.56,0.4,0.62c0.04,0.01,0.08,0.01,0.11,0.01
		c0.24,0,0.46-0.17,0.51-0.41l4.65-21.04h9.63l4.65,21.04c0.05,0.24,0.27,0.41,0.51,0.41c0.04,0,0.08,0,0.11-0.01
		c0.28-0.06,0.46-0.34,0.4-0.62L27.6,16.83z M21.79,15.77c0.29,0,0.52-0.23,0.52-0.52v-3.04c0-0.07-0.02-0.14-0.04-0.21h4.03v3.78
		h-9.23v-3.78h4.24c-0.03,0.06-0.04,0.13-0.04,0.21v3.04C21.27,15.54,21.5,15.77,21.79,15.77z M31.13,12.01v3.78h-3.78v-3.78H31.13z
		 M21.69,1.04c2.54,0,4.62,2.14,4.62,4.78V6h-9.23V5.82C17.08,3.19,19.15,1.04,21.69,1.04z M17.08,7.04h9.23v3.92h-9.23V7.04z
		 M12.46,12.01h3.58v3.78h-3.58V12.01z"/>
	<path d="M0.52,1.6h6.12c0.29,0,0.52-0.23,0.52-0.52S6.93,0.56,6.64,0.56H0.52C0.23,0.56,0,0.79,0,1.08S0.23,1.6,0.52,1.6z"/>
	<path d="M36.91,1.47h6.12c0.29,0,0.52-0.23,0.52-0.52s-0.23-0.52-0.52-0.52h-6.12c-0.29,0-0.52,0.23-0.52,0.52
		S36.62,1.47,36.91,1.47z"/>
	<path d="M6.64,10.92H0.52C0.23,10.92,0,11.16,0,11.44s0.23,0.52,0.52,0.52h6.12c0.29,0,0.52-0.23,0.52-0.52S6.93,10.92,6.64,10.92z
		"/>
	<path d="M43.03,10.79h-6.12c-0.29,0-0.52,0.23-0.52,0.52s0.23,0.52,0.52,0.52h6.12c0.29,0,0.52-0.23,0.52-0.52
		S43.32,10.79,43.03,10.79z"/>
	<path d="M10.07,6H0.52C0.23,6,0,6.24,0,6.52s0.23,0.52,0.52,0.52h9.55c0.29,0,0.52-0.23,0.52-0.52S10.36,6,10.07,6z"/>
	<path d="M43.03,5.87h-9.55c-0.29,0-0.52,0.23-0.52,0.52s0.23,0.52,0.52,0.52h9.55c0.29,0,0.52-0.23,0.52-0.52
		S43.32,5.87,43.03,5.87z"/>
</g>
</svg>
