<?xml version="1.0" encoding="utf-8"?>
<!-- Generator: Adobe Illustrator 24.0.1, SVG Export Plug-In . SVG Version: 6.00 Build 0)  -->
<svg version="1.1"
	 id="svg3070" inkscape:version="0.48.0 r9654" sodipodi:docname="New document 4" xmlns:cc="http://creativecommons.org/ns#" xmlns:dc="http://purl.org/dc/elements/1.1/" xmlns:inkscape="http://www.inkscape.org/namespaces/inkscape" xmlns:rdf="http://www.w3.org/1999/02/22-rdf-syntax-ns#" xmlns:sodipodi="http://sodipodi.sourceforge.net/DTD/sodipodi-0.dtd" xmlns:svg="http://www.w3.org/2000/svg"
	 xmlns="http://www.w3.org/2000/svg" xmlns:xlink="http://www.w3.org/1999/xlink" x="0px" y="0px" viewBox="0 0 52.3 50"
	 style="enable-background:new 0 0 52.3 50;" xml:space="preserve">
<style type="text/css">
	.st0{fill-rule:evenodd;clip-rule:evenodd;fill:#FFFFFF;}
</style>
<sodipodi:namedview  bordercolor="#666666" borderopacity="1.0" fit-margin-bottom="0" fit-margin-left="0" fit-margin-right="0" fit-margin-top="0" id="base" inkscape:current-layer="layer1" inkscape:cx="142.93233" inkscape:cy="33.703355" inkscape:document-units="px" inkscape:pageopacity="0.0" inkscape:pageshadow="2" inkscape:window-height="750" inkscape:window-maximized="1" inkscape:window-width="1280" inkscape:window-x="-8" inkscape:window-y="-8" inkscape:zoom="2.8" pagecolor="#ffffff" showgrid="false">
	</sodipodi:namedview>
<path id="path28" inkscape:connector-curvature="0" class="st0" d="M11.9,50V16.3H0.7V50H11.9z M6.3,11.7c3.9,0,6.3-2.6,6.3-5.8
	C12.5,2.5,10.2,0,6.3,0C2.5,0,0,2.5,0,5.8C0,9.1,2.4,11.7,6.3,11.7L6.3,11.7L6.3,11.7z"/>
<path id="path30" inkscape:connector-curvature="0" class="st0" d="M18.1,50h11.2V31.2c0-1,0.1-2,0.4-2.7c0.8-2,2.7-4.1,5.8-4.1
	c4.1,0,5.7,3.1,5.7,7.6v18h11.2V30.7c0-10.4-5.5-15.2-12.9-15.2c-6,0-8.7,3.4-10.2,5.7h0.1v-4.9H18.1C18.2,19.4,18.1,50,18.1,50
	L18.1,50z"/>
</svg>
