<?xml version="1.0" encoding="utf-8"?>
<!-- Generator: Adobe Illustrator 24.1.0, SVG Export Plug-In . SVG Version: 6.00 Build 0)  -->
<svg version="1.1" id="Capa_1" xmlns="http://www.w3.org/2000/svg" xmlns:xlink="http://www.w3.org/1999/xlink" x="0px" y="0px"
	 viewBox="0 0 614.5 272.4" style="enable-background:new 0 0 614.5 272.4;" xml:space="preserve">
<path d="M233.1,125.3c0,5.3-1,10.5-3,15.3c-2.1,4.6-4.9,8.9-8.4,12.4c-3.7,3.6-7.8,6.5-12.5,8.4c-4.8,2.1-9.9,3-15.2,3
	c-5.4,0-10.8-1.2-16.5-3.7c-5.1-2.3-10.4-5.5-16-9.8c-9.3-7.1-18.4-16.4-27.2-25.6c-20.4,11.3-41.6,21.9-63.2,21.9
	c-9.5,0-18.8-1.8-27.5-5.6c-8.4-3.6-16.1-8.6-22.6-15.1C14.4,120,9.2,112.4,5.6,104C1.9,95.3,0,86,0,76.4C0,68,1.5,59.8,4.3,52
	C7,44.3,10.9,37.2,16,30.8c10.2-13,24.3-22,39.7-25.4h0.1h6.5h3.1h15.9h11c18.7,0,34,17,34,37.8C126.4,64,111,81,92.3,81h-11h-3.5
	c3,0.5,6,1.5,9.3,3c4.6,2.1,9.4,5.1,14.6,9.1c9.7,7.6,19.5,17.9,29.2,28c0.1,0.1,0.3,0.3,0.4,0.4c3.9-2.9,7.7-5.9,11.3-8.9
	c8.9-6.9,17.2-13.5,25.6-18.4c9.5-5.6,17.6-8.2,25.6-8.2c5.3,0,10.5,1.1,15.2,3.1c4.8,1.9,8.9,4.8,12.5,8.4
	c3.6,3.6,6.4,7.8,8.4,12.4C232.1,114.9,233.1,120,233.1,125.3z M67.3,81h-1.8h-3.1h-6.5v-0.6c3.6,0,6.5-2.9,6.5-6.5V12.5
	C62.3,9,59.4,6,55.8,6c-32,7-55.2,36.5-55.2,70.3c0,38.8,31.6,70.3,70.3,70.3c23.2,0,42.7-11.8,59.8-24.7c-0.1-0.2-0.2-0.3-0.4-0.4
	c-9.5-10-19.3-20.3-28.9-27.9c-10.8-8.4-20.3-12.4-29.1-12.4 M81.3,80.4h3.3c11.9,0,21.5-16.6,21.5-37.2C106.2,22.7,96.6,6,84.7,6
	h-3.3V80.4z M232.4,125.3c0-17.1-16.2-29.6-38.6-26.6c-18.7,2.6-38.6,14.8-59.2,26.4c8.9,9.2,17.9,18.4,27,25.4
	c11.8,9.1,22.3,13.4,32.2,13.4C215.2,163.8,232.4,146.6,232.4,125.3z"/>
<path d="M176.2,68.4l0.5,0.3c-4.3,7.8-12.1,12.9-20.8,12.9c-13.6,0-24.6-12.2-24.6-27.3c0-15.1,11-27.3,24.6-27.3
	c11.8,0,20.5,9.2,22.9,21.4h-10h-4.6h-16.6c0,14.3,7.9,25.8,17.6,25.8C169.2,74.1,173.1,71.9,176.2,68.4z M147.4,47.6h16.6
	c-0.7-13.4-3.5-20.1-8.2-20.1C148.4,27.5,147.5,44,147.4,47.6z"/>
<path d="M220.4,24.3v2.3V72v3c0,2.6,1.9,4.9,4.4,5.3V81h-6.7h-18.4v-0.6c2.5-0.4,4.4-2.7,4.4-5.3v-3V48V27.4v-2.1v-3.9v-6.3V14
	c0-2.6-1.9-4.9-4.4-5.3V8.1l18.5-2.7c0.1,0,0.2,0,0.3,0c1.1,0,1.8,0.9,1.8,1.9v13.7V24.3z"/>
<path d="M237.6,1.2L248.2,0l0.4,0.4L231,20.2l-0.8,0.1L237.6,1.2z"/>
<path d="M256.6,23.8l-2.6-0.5l12.5-13.4l12.5,13.4l-2.6,0.5l-9.9-6.5L256.6,23.8z M274.7,72v3c0,2.6,1.9,4.9,4.4,5.3V81h-6.7H254
	v-0.6c2.5-0.4,4.4-2.7,4.4-5.3v-3V48v-4v-6.2v-1.2c0-2.7-1.9-4.9-4.4-5.3v-0.6l18.5-2.7c0.1,0,0.2,0,0.3,0c1.1,0,1.8,0.8,1.8,1.8
	v13.7V72z"/>
<path d="M301.9,24.3v2.3V72v3c0,2.6,1.9,4.9,4.4,5.3V81h-6.7h-18.4v-0.6c2.5-0.4,4.4-2.7,4.4-5.3v-3V48V27.4v-2.1v-3.9v-6.3V14
	c0-2.6-1.9-4.9-4.4-5.3V8.1l18.5-2.7c0.1,0,0.2,0,0.3,0c1.1,0,1.8,0.9,1.8,1.9v13.7V24.3z"/>
<path d="M354.5,68.4l0.5,0.3c-4.3,7.8-12.1,12.9-20.8,12.9c-13.6,0-24.6-12.2-24.6-27.3c0-15.1,11-27.3,24.6-27.3
	c11.8,0,20.5,9.2,22.9,21.4h-10h-4.6h-16.6c0,14.3,7.9,25.8,17.6,25.8C347.5,74.1,351.4,71.9,354.5,68.4z M325.7,47.6h16.6
	c-0.7-13.4-3.5-20.1-8.2-20.1C326.7,27.5,325.8,44,325.7,47.6z"/>
<path d="M393.5,77.4c-0.2,0.9,0.1,1.8,1.2,1.8c2,0,3.9-1.7,5.4-4.4l0.9,0.4c-1.9,3.8-5.7,6.3-8.5,6.3c-3.6,0-5.7-2.8-4.6-6.6
	c-2.1,4.3-4.9,6.6-8.4,6.6c-6,0-8.1-5-8.1-9.8c0-7.8,7.6-17.4,17-17.4c2.1,0,4.1,1.1,4.5,3.2l1.2-2.6l6.6-0.7L393.5,77.4z
	 M388.6,55.2c-1,0-1.8,0.3-3.3,1.4c-4.5,3.4-7.4,14.5-7.4,19.6c0,3.2,1.1,4.2,2.9,4.2c3.1,0,5.7-3.6,8.4-10.3l3.4-10.7
	C392.5,56.8,391,55.2,388.6,55.2z"/>
<path d="M427,77.3c-0.4,1.2,0.1,2,1.4,2c1.9,0,3.4-1.2,5.2-4.4l0.9,0.4c-2.2,4.4-5.7,6.3-8.5,6.3c-3.6,0-6.3-2.8-4.1-9.3
	c-3.9,6.9-7.9,9.3-11.3,9.3c-3.2,0-5.4-2-5.4-5.6c0-6,5.5-14.1,5.5-17.7c0-1.4-0.4-1.9-1.4-1.9c-1.1,0-2.5,1.2-3.8,3.8l-0.9-0.4
	c1.7-3.8,4.6-5.5,7.3-5.5c3.2,0,4.7,2,4.7,4.6c0,5-5,11.3-5,16.8c0,1.5,0.7,2.6,2.2,2.6c2.8,0,5.1-2.6,9.2-9.8l4.3-13.7l6.8-0.4
	L427,77.3z"/>
<path d="M463.7,63.4c-1.7,0-2.6-0.9-2.6-2.3c0-1,0.6-1.4,0.6-2.3c0-1-0.3-1.4-1.4-1.4c-1.9,0-3.6,2.8-6.2,8.4c0,0.3,0.2,1.5,0.3,1.8
	c1.4,7.9,3.5,10.9,5.4,10.9c1.7,0,2.9-1.2,4.1-3.9l1,0.4c-1.5,4.1-4.5,6.5-8,6.5c-3.4,0-6.3-3-7.8-9.7c-3.1,6.7-6.5,9.7-10,9.7
	c-2.6,0-5.4-1.9-5.4-4.8c0-2.6,1.8-4.6,3.9-4.6c1.7,0,2.5,1.2,2.5,2.2c0,1.3-0.7,1.7-0.7,2.8c0,1,0.6,2,1.9,2c2.4,0,4.2-2,7.3-8.4
	c-0.1-0.9-0.2-1.7-0.5-2.8c-1.6-9.2-2.4-10.6-4.2-10.6c-1.2,0-2.1,1-3.2,3.2l-0.9-0.8c1.8-3.7,4.4-5.5,7-5.5c3.4,0,5.3,2.6,6.8,9.9
	c3-6.5,5.8-9.9,9.3-9.9c2.8,0,4.3,2.4,4.3,4.8C467.3,61.9,465.3,63.4,463.7,63.4z"/>
<path d="M310,146.1c0,24.3-23,30-32.5,33.2V198c0,1.2-1,2.3-2.3,2.3h-18.4v-0.6c2.5-0.5,4.4-2.7,4.4-5.4v-2.9v-24.1v-11.6v-24.8
	v-1.2c0-2.7-1.9-4.9-4.4-5.3v-0.6l18.5-2.7c0.1,0,0.2,0,0.3,0c1.1,0,1.8,0.9,1.8,1.8v0.5c2.3-1.2,4.9-2.1,7.8-2.4
	C297.1,119.8,310,129.9,310,146.1z M294,147.1c0-13.3-5.7-24-12.9-24c-1.3,0-2.5,0.3-3.7,0.9v8.2v2.5v36v7.7
	C285.2,174.2,294,167,294,147.1z"/>
<path d="M363.1,171.2v0.6l-18.6,2.7c0,0-0.1,0-0.2,0c-1.1,0-1.9-0.9-1.9-1.9v-1v-1.7c-2.6,1.9-7,4.6-13.1,4.6
	c-6.8,0-12.9-3.9-14.5-9.9c-1.7-6.2,1.7-12.5,7.7-16.2c9.3-5.8,34.6-9.5,34.6-17.8c0-2.9-2.9-6.1-6.4-7.8c-4.2-2.1-9.4-2.8-14.7-1.9
	c-3.9,0.5-6.2,1.8-6.2,4.1c0,4,4.6,5.4,4.6,10.4c0,4.6-3.8,8.3-8.4,8.3c-4.6,0-8.3-3.7-8.3-8.3c0-8.4,10.5-14,18.1-15.1
	c5.6-0.9,11-0.1,15.1,2.1c4.1,2.1,7.7,5.7,7.7,11v1.8v15.7v3.8v10.2v1.2C358.7,168.5,360.6,170.8,363.1,171.2z M342.4,141.4
	c-4.4,2.1-11,5.5-11.7,14.6c-0.3,5.2,1,9.2,3.2,11.7c2.4,2.6,6,3.2,8.4,1.5v-13.5v-6.5v-7.2V141.4z"/>
<path d="M417.4,146.1c0,24.3-23,30-32.5,33.2V198c0,1.2-1,2.3-2.3,2.3h-18.4v-0.6c2.5-0.5,4.4-2.7,4.4-5.4v-2.9v-24.1v-11.6v-24.8
	v-1.2c0-2.7-1.9-4.9-4.4-5.3v-0.6l18.5-2.7c0.1,0,0.2,0,0.3,0c1.1,0,1.8,0.9,1.8,1.8v0.5c2.3-1.2,4.9-2.1,7.8-2.4
	C404.5,119.8,417.4,129.9,417.4,146.1z M401.4,147.1c0-13.3-5.7-24-12.9-24c-1.3,0-2.5,0.3-3.7,0.9v8.2v2.5v36v7.7
	C392.5,174.2,401.4,167,401.4,147.1z"/>
<path d="M614.5,165c0,12.4-2.5,24.6-7.2,36.1c-4.8,11-11.3,20.8-19.9,29.4c-8.5,8.5-18.5,15.2-29.5,19.9
	c-11.4,4.9-23.5,7.2-36.1,7.2c-29.5,0-52.3-13.2-71.9-28.5c-2.2,1.8-4.4,3.7-6.6,5.5c-11.2,9.3-22.8,18.8-34.3,25.9
	c-6.4,3.9-12.1,6.7-17.8,8.6c-6.3,2.2-12.3,3.2-18.3,3.2c-6.2,0-12.2-1.2-17.9-3.6c-5.4-2.4-10.4-5.6-14.6-9.9
	c-4.2-4.2-7.6-9.1-9.8-14.6c-2.5-5.6-3.7-11.7-3.7-17.9c0-6.2,1.2-12.2,3.7-17.9c2.3-5.4,5.6-10.4,9.8-14.6
	c4.2-4.2,9.2-7.6,14.6-9.8c5.7-2.5,11.8-3.7,17.9-3.7c9.6,0,19.1,3.1,29.8,9.8c9.5,5.9,18.8,14,28.6,22.6
	c5.9,5.1,12.1,10.4,18.6,15.4c5.5-4.4,11-8.9,16.5-12.7c8.7-6.4,16.5-10.8,23.7-13.7c8.6-3.3,16.5-4.5,24.3-3.7
	c4.2,0.5,8.4,1.7,12.4,3.5c4.2,1.8,8.5,4.5,12.6,7.8l-0.3,0.5c-15.3-12.2-30.9-14.6-48.7-7.5c-13.4,5.3-26.9,15.6-40,26.2
	c19.5,15.2,42.1,28.3,71.4,28.3c50.8,0,92-41.3,92-91.9c0-50.8-41.3-92-92-92c-35,0-65.5,19.7-81,48.5c0.3,0.3,0.4,0.8,0.4,1.3v45.3
	c0,2.6,1.9,4.9,4.4,5.3v0.6h-25.1v-0.6c2.5-0.4,4.4-2.7,4.4-5.3v-38.4c0-2.7-1.9-4.9-4.4-5.3v-0.6l18.5-2.7c0.1,0,0.2,0,0.3,0
	c0.3,0,0.5,0,0.9,0.1c4.2-7.9,9.6-15.1,16.1-21.6c8.4-8.5,18.4-15.2,29.4-19.9c11.4-4.8,23.5-7.2,36.1-7.2c12.5,0,24.6,2.5,36.1,7.2
	c11,4.6,21,11.3,29.5,19.9c8.5,8.5,15.1,18.5,19.9,29.5C612,140.4,614.5,152.5,614.5,165z M449.3,228.7
	c-6.4-5.1-12.5-10.3-18.5-15.4c-9.8-8.5-19.1-16.5-28.5-22.5c-10.7-6.6-20-9.7-29.5-9.7c-6.2,0-12.1,1.2-17.6,3.6
	c-5.4,2.3-10.3,5.6-14.5,9.7c-4.2,4.2-7.5,9.1-9.7,14.5c-2.4,5.5-3.6,11.4-3.6,17.6c0,25.1,20.3,45.4,45.4,45.4
	c24.5,0,47.6-19.1,70-37.7C445,232.3,447.2,230.5,449.3,228.7z M424.8,106.8c0-4.6,3.7-8.4,8.3-8.4c4.6,0,8.4,3.8,8.4,8.4
	c0,4.5-3.8,8.3-8.4,8.3C428.5,115.1,424.8,111.4,424.8,106.8z"/>
<path d="M468.4,117.3v2.3V165v3c0,2.6,1.9,4.9,4.4,5.3v0.6h-6.7h-18.4v-0.6c2.5-0.4,4.4-2.7,4.4-5.3v-3V141v-20.5v-2.1v-3.9v-6.3
	V107c0-2.6-1.9-4.9-4.4-5.3v-0.6l18.5-2.7c0.1,0,0.2,0,0.3,0c1.1,0,1.8,0.9,1.8,1.9v13.7V117.3z"/>
<path d="M495.6,117.3v2.3V165v3c0,2.6,1.9,4.9,4.4,5.3v0.6h-6.7H475v-0.6c2.5-0.4,4.4-2.7,4.4-5.3v-3V141v-20.5v-2.1v-3.9v-6.3V107
	c0-2.6-1.9-4.9-4.4-5.3v-0.6l18.5-2.7c0.1,0,0.2,0,0.3,0c1.1,0,1.8,0.9,1.8,1.9v13.7V117.3z"/>
<path d="M548.2,161.4l0.5,0.3c-4.3,7.8-12.1,12.9-20.8,12.9c-13.6,0-24.6-12.2-24.6-27.3c0-15.1,11-27.3,24.6-27.3
	c11.8,0,20.5,9.2,22.9,21.4h-10h-4.6h-16.6c0,14.3,7.9,25.8,17.6,25.8C541.3,167.1,545.2,164.9,548.2,161.4z M519.5,140.6h16.6
	c-0.7-13.4-3.5-20.1-8.2-20.1C520.5,120.5,519.6,137,519.5,140.6z"/>
<path d="M576.5,174.5c-11,0-20.3-6-20.3-14c0-4.5,3.8-8.3,8.3-8.3c4.6,0,8.4,3.8,8.4,8.3c0,5.8-5.1,6.7-5.1,9.5c0,1.6,1.8,3.2,4,3.6
	c1.4,0.2,2.5,0.3,4.6,0.3c3.9,0,7-3.1,7-7c0-10.8-27.3-19.2-27.3-34.3c0-8.6,10.3-12.6,18.3-12.6c7.8,0,11,3,15.7,2.7
	c1.2-0.1,2.2-0.6,2.7-1.2h0.5v17.5c0,0-0.3,0-0.5,0c-1.3-6.5-4.4-16.7-14.9-18.1c-3.8-0.5-6.8,1.5-7.1,6
	c-0.9,11.4,24.8,17.8,26.1,32.6C597.6,168,587.8,174.5,576.5,174.5z"/>
</svg>
