<?xml version="1.0" encoding="utf-8"?>
<!-- Generator: Adobe Illustrator 24.1.0, SVG Export Plug-In . SVG Version: 6.00 Build 0)  -->
<svg version="1.1" id="Capa_1" xmlns="http://www.w3.org/2000/svg" xmlns:xlink="http://www.w3.org/1999/xlink" x="0px" y="0px"
	 viewBox="0 0 37.14 33.21" style="enable-background:new 0 0 37.14 33.21;" xml:space="preserve">
<g>
	<path d="M30.05,28.85c0.27-0.17,6.61-4.2,6.87-13.16c0.79-4.84-0.79-9.87-0.89-10.16c-1.29-2.99-3.04-4.79-5.18-5.35
		c-3-0.77-5.61,1.2-5.73,1.3C25.03,1.55,16.31,8.63,8.51,4C6.42,2.76,4.64,2.55,3.22,3.39C-0.21,5.43,0,12.99,0.02,13.44
		c0,0.12,0.01,0.24,0.01,0.37c0,0.01,0,0.01,0,0.02C-0.2,18.87,0.99,28,11.51,32.4c0.18,0.07,2.34,0.82,5.57,0.82
		C20.55,33.21,25.24,32.35,30.05,28.85z M3.76,4.29c0.4-0.24,0.85-0.36,1.35-0.36c0.83,0,1.78,0.32,2.87,0.96
		c8.43,5,17.71-2.54,17.79-2.6c0.02-0.02,2.33-1.76,4.83-1.1c1.81,0.47,3.31,2.07,4.46,4.7c0.02,0.07,2.3,7.31,0.01,12.47
		c-0.01,0.03-1.39,3.3-4.85,6.13c-4.65,3.8-10.63,5.01-17.71,3.58C12.39,28.04,1.05,24.4,1.06,13.43c0-0.01,0-0.01,0-0.02
		C1.06,13.34,0.82,6.03,3.76,4.29z M11.89,31.42c-5.97-2.5-8.74-6.62-9.96-10.55c3.41,6.01,10.19,8.18,10.32,8.21
		c2.05,0.41,3.94,0.6,5.69,0.6c9.79,0,14.9-5.75,16.96-8.9c-1.78,4.85-5.36,7.16-5.43,7.2C20.6,34.43,11.95,31.45,11.89,31.42z"/>
	<path d="M28.24,11.01L16.45,16.3l-7.91-5.24c-0.24-0.16-0.56-0.09-0.72,0.15c-0.16,0.24-0.09,0.56,0.15,0.72l7.81,5.17l-2.46,6.82
		c-0.1,0.27,0.04,0.57,0.31,0.67c0.06,0.02,0.12,0.03,0.18,0.03c0.21,0,0.41-0.13,0.49-0.34l2.53-6.99l11.85-5.31
		c0.26-0.12,0.38-0.43,0.26-0.69C28.82,11.01,28.51,10.89,28.24,11.01z"/>
</g>
</svg>
