<?xml version="1.0" encoding="utf-8"?>
<!-- Generator: Adobe Illustrator 24.1.0, SVG Export Plug-In . SVG Version: 6.00 Build 0)  -->
<svg version="1.1" id="Capa_1" xmlns="http://www.w3.org/2000/svg" xmlns:xlink="http://www.w3.org/1999/xlink" x="0px" y="0px"
	 viewBox="0 0 18.87 36.52" style="enable-background:new 0 0 18.87 36.52;" xml:space="preserve">
<g>
	<path d="M3.09,8.86h0.54L0.04,32.58c-0.16,1.04,0.11,2.03,0.75,2.78c0.64,0.75,1.58,1.16,2.63,1.16h12.01
		c1.05,0,1.99-0.41,2.63-1.16c0.64-0.75,0.91-1.74,0.76-2.78L15.24,8.86h0.54c0.28,0,0.5-0.22,0.5-0.5s-0.22-0.5-0.5-0.5H3.09
		c-0.28,0-0.5,0.22-0.5,0.5S2.82,8.86,3.09,8.86z M14.23,8.86l3.61,23.88c0.11,0.75-0.07,1.45-0.53,1.98
		c-0.45,0.52-1.12,0.81-1.87,0.81H3.43c-0.76,0-1.42-0.29-1.87-0.81c-0.45-0.52-0.64-1.23-0.52-1.97L4.64,8.86H14.23z"/>
	<path d="M3.41,7.25h12.04c0.28,0,0.5-0.22,0.5-0.5V6.29C15.96,2.82,13.13,0,9.67,0H9.2C5.74,0,2.91,2.82,2.91,6.29v0.46
		C2.91,7.03,3.14,7.25,3.41,7.25z M9.2,1h0.46c2.9,0,5.27,2.35,5.29,5.25H3.91C3.93,3.35,6.3,1,9.2,1z"/>
	<path d="M9.43,2.21c-0.36,0-0.65,0.29-0.65,0.65c0,0.36,0.29,0.65,0.65,0.65s0.65-0.29,0.65-0.65C10.09,2.5,9.79,2.21,9.43,2.21z"
		/>
	<path d="M11.36,3.74c-0.36,0-0.65,0.29-0.65,0.65c0,0.36,0.29,0.65,0.65,0.65c0.36,0,0.65-0.29,0.65-0.65
		C12.01,4.03,11.72,3.74,11.36,3.74z"/>
	<path d="M7.58,3.74c-0.36,0-0.65,0.29-0.65,0.65c0,0.36,0.29,0.65,0.65,0.65s0.65-0.29,0.65-0.65C8.23,4.03,7.94,3.74,7.58,3.74z"
		/>
	<path d="M5.68,31.5c-0.36,0-0.65,0.29-0.65,0.65c0,0.36,0.29,0.65,0.65,0.65c0.36,0,0.65-0.29,0.65-0.65
		C6.34,31.79,6.04,31.5,5.68,31.5z"/>
	<path d="M7.6,33.03c-0.36,0-0.65,0.29-0.65,0.65c0,0.36,0.29,0.65,0.65,0.65s0.65-0.29,0.65-0.65C8.26,33.32,7.96,33.03,7.6,33.03z
		"/>
	<path d="M3.83,33.03c-0.36,0-0.65,0.29-0.65,0.65c0,0.36,0.29,0.65,0.65,0.65c0.36,0,0.65-0.29,0.65-0.65
		C4.48,33.32,4.19,33.03,3.83,33.03z"/>
	<path d="M13.12,31.5c-0.36,0-0.65,0.29-0.65,0.65c0,0.36,0.29,0.65,0.65,0.65c0.36,0,0.65-0.29,0.65-0.65
		C13.77,31.79,13.48,31.5,13.12,31.5z"/>
	<path d="M15.04,33.03c-0.36,0-0.65,0.29-0.65,0.65c0,0.36,0.29,0.65,0.65,0.65s0.65-0.29,0.65-0.65
		C15.69,33.32,15.4,33.03,15.04,33.03z"/>
	<path d="M11.26,33.03c-0.36,0-0.65,0.29-0.65,0.65c0,0.36,0.29,0.65,0.65,0.65c0.36,0,0.65-0.29,0.65-0.65
		C11.92,33.32,11.62,33.03,11.26,33.03z"/>
	<path d="M9.47,31.5c-0.36,0-0.65,0.29-0.65,0.65c0,0.36,0.29,0.65,0.65,0.65s0.65-0.29,0.65-0.65C10.12,31.79,9.83,31.5,9.47,31.5z
		"/>
	<path d="M7.55,31.28c0.36,0,0.65-0.29,0.65-0.65c0-0.36-0.29-0.65-0.65-0.65c-0.36,0-0.65,0.29-0.65,0.65
		C6.89,30.99,7.18,31.28,7.55,31.28z"/>
	<path d="M11.32,29.97c-0.36,0-0.65,0.29-0.65,0.65c0,0.36,0.29,0.65,0.65,0.65s0.65-0.29,0.65-0.65
		C11.98,30.27,11.68,29.97,11.32,29.97z"/>
</g>
</svg>
