<?xml version="1.0" encoding="utf-8"?>
<!-- Generator: Adobe Illustrator 24.1.0, SVG Export Plug-In . SVG Version: 6.00 Build 0)  -->
<svg version="1.1" id="Calque_1" xmlns="http://www.w3.org/2000/svg" xmlns:xlink="http://www.w3.org/1999/xlink" x="0px" y="0px"
	 viewBox="0 0 50 50" style="enable-background:new 0 0 50 50;" xml:space="preserve">
<g>
	<path d="M44.5,10.2l-5.1-0.9l-0.2,1.2l7.1,1.3L47,4.5l-1.2-0.1l-0.5,5c-2-2.7-4.6-5-7.6-6.6C27.1-3,13.9,0.7,7.6,11
		c-0.2,0.3-0.1,0.7,0.2,0.8c0.1,0.1,0.2,0.1,0.3,0.1c0.2,0,0.4-0.1,0.5-0.3c6-9.8,18.5-13.3,28.6-7.9C40.1,5.3,42.6,7.5,44.5,10.2z"
		/>
</g>
<g>
	<path d="M24.4,45.5c-2.6-0.3-5.1-1.1-7.4-2.4C8,38.3,3.5,27.8,6,17.9l2.4,4.6L9.5,22l-3.4-6.5L0,19.5l0.6,1l4.1-2.7
		C2.2,28.2,7,39.2,16.4,44.2c2.5,1.3,5.1,2.2,7.8,2.5c0,0,0,0,0.1,0c0.3,0,0.6-0.2,0.6-0.5C24.9,45.8,24.7,45.5,24.4,45.5z"/>
</g>
<g>
	<path d="M49.5,18.5c-0.2-0.9-0.4-1.8-0.7-2.7c-0.1-0.3-0.4-0.5-0.8-0.4c-0.3,0.1-0.5,0.5-0.4,0.8c0.3,0.8,0.5,1.7,0.7,2.6
		c1.1,5.1,0.4,10.4-2,15c-2.7,5.3-7.2,9.1-12.8,10.9c-0.7,0.2-1.4,0.4-2.1,0.5l3-4.3l-1-0.7l-4.2,5.9l6.1,3.8l0.6-1l-4.2-2.6
		c0.7-0.2,1.4-0.3,2.1-0.5c5.9-1.9,10.6-5.9,13.5-11.5C49.9,29.5,50.6,23.8,49.5,18.5z"/>
</g>
</svg>
