<?xml version="1.0" encoding="utf-8"?>
<!-- Generator: Adobe Illustrator 24.0.1, SVG Export Plug-In . SVG Version: 6.00 Build 0)  -->
<svg version="1.1" id="Calque_1" xmlns="http://www.w3.org/2000/svg" xmlns:xlink="http://www.w3.org/1999/xlink" x="0px" y="0px"
	 viewBox="0 0 24 19.5" style="enable-background:new 0 0 24 19.5;" xml:space="preserve">
<style type="text/css">
	.st0{enable-background:new    ;}
</style>
<g class="st0">
	<g>
		<path d="M21.5,5.5c0,6.5-4.9,14-14,14c-2.8,0-5.4-0.8-7.6-2.2c0.4,0,0.8,0.1,1.2,0.1c2.3,0,4.4-0.8,6.1-2.1c-2.2,0-4-1.5-4.6-3.4
			c0.3,0,0.6,0.1,0.9,0.1c0.4,0,0.9-0.1,1.3-0.2C2.7,11.3,1,9.3,1,6.9V6.9c0.7,0.4,1.4,0.6,2.2,0.6C1.9,6.6,1,5.1,1,3.4
			c0-0.9,0.2-1.8,0.7-2.5c2.4,3,6.1,4.9,10.1,5.1c-0.1-0.4-0.1-0.7-0.1-1.1c0-2.7,2.2-4.9,4.9-4.9c1.4,0,2.7,0.6,3.6,1.6
			c1.1-0.2,2.2-0.6,3.1-1.2c-0.4,1.1-1.1,2.1-2.2,2.7c1-0.1,1.9-0.4,2.8-0.8c-0.7,1-1.5,1.8-2.5,2.5C21.5,5.1,21.5,5.3,21.5,5.5z"/>
	</g>
</g>
</svg>
