<?xml version="1.0" encoding="utf-8"?>
<!-- Generator: Adobe Illustrator 24.1.0, SVG Export Plug-In . SVG Version: 6.00 Build 0)  -->
<svg version="1.1" id="Capa_1" xmlns="http://www.w3.org/2000/svg" xmlns:xlink="http://www.w3.org/1999/xlink" x="0px" y="0px"
	 viewBox="0 0 33.9 39.61" style="enable-background:new 0 0 33.9 39.61;" xml:space="preserve">
<path d="M17.54,0.03C17.45,0,17.36,0,17.28,0.02C17.17,0.01,17.06,0,16.95,0C7.6,0,0,7.58,0,16.9c0,0.29,0.23,0.52,0.52,0.52h15.91
	v21.66c0,0.29,0.23,0.52,0.52,0.52s0.52-0.23,0.52-0.52V17.43h15.91c0.29,0,0.52-0.23,0.52-0.52C33.9,7.78,26.61,0.34,17.54,0.03z
	 M23.65,16.38H10.69c0.2-9.46,5.54-14.54,6.45-15.33c0.02,0,0.03,0,0.05,0C18.12,1.85,23.45,6.94,23.65,16.38z M15.57,1.11
	c-1.93,1.99-5.76,7-5.92,15.27h-8.6C1.31,8.34,7.62,1.8,15.57,1.11z M24.69,16.38c-0.16-8.2-3.93-13.19-5.87-15.22
	c7.72,0.91,13.77,7.34,14.03,15.22H24.69z"/>
</svg>
