<?xml version="1.0" encoding="utf-8"?>
<!-- Generator: Adobe Illustrator 24.1.0, SVG Export Plug-In . SVG Version: 6.00 Build 0)  -->
<svg version="1.1" id="Calque_1" xmlns="http://www.w3.org/2000/svg" xmlns:xlink="http://www.w3.org/1999/xlink" x="0px" y="0px"
	 viewBox="0 0 27 28" style="enable-background:new 0 0 27 28;" xml:space="preserve">
<g>
	<path d="M25.5,12.3c0.6-0.6,0.8-1.2,0.8-1.8c-0.1-1.1-1.3-1.8-1.8-2c-0.1-1.4-0.7-2-1.2-2.3c-0.8-0.4-1.8-0.2-3,0.5
		c-0.5-0.8-1.2-1.2-2-1.3c-0.9-0.1-1.7,0.3-2.3,0.7l0.3-3.9c0-1.1-1.7-2-2.7-2s-2.7,0.9-2.7,2l0.5,7.6c-0.8-2-2.3-4.5-4.3-4.9
		c0,0-0.2,0-0.6,0L5.2,0.3C5.1,0.1,5,0,4.8,0C4.7,0,4.5,0.1,4.5,0.3L4.1,2.9H2.5C2.3,2.9,2.2,3,2.2,3.1c-0.1,0.1,0,0.3,0.1,0.4
		L4.6,6C4.7,6,4.7,6.1,4.8,6.1c0,0,0,0,0,0C4.5,6.9,4.4,8,4.6,9.5c0.1,0.9,0.3,1.6,0.6,2.4H3.1c-1.7,0-3.1,1.3-3.1,2.8
		c0,1.2,0.9,2.3,2.2,2.7l1.5,6.4c0,0,0,0.1,0,0.1c0,0.1,0,0.2,0.1,0.3l0.8,3.6c0,0.2,0.2,0.3,0.3,0.3h17.8c0.2,0,0.3-0.1,0.3-0.3
		l1.6-10.3C26,17.1,27,16,27,14.7C27,13.7,26.4,12.8,25.5,12.3z M18.1,6.1c0.6,0.1,1.2,0.5,1.7,1.3c0,0.1,0.1,0.1,0.2,0.2
		c0.1,0,0.2,0,0.3-0.1c1-0.7,2-0.9,2.6-0.6c0.6,0.3,0.8,1.2,0.9,1.9c0,0.1,0.1,0.3,0.2,0.3c0.4,0.2,1.5,0.7,1.6,1.5
		c0.1,0.5-0.3,1-0.8,1.4c-0.3-0.1-0.6-0.1-0.9-0.1H22c0.1-0.2,0.1-0.4,0.1-0.5c-0.1-0.7-0.8-1.1-1.1-1.3c-0.1-0.9-0.5-1.3-0.8-1.4
		c-0.5-0.3-1.2-0.2-1.9,0.2c-0.3-0.5-0.8-0.7-1.3-0.8c-0.5-0.1-0.9,0.1-1.3,0.3l0.1-1.4C16.4,6.5,17.3,6,18.1,6.1z M15.7,9.2
		C16,9,16.5,8.7,16.9,8.8c0.4,0,0.7,0.3,0.9,0.7c0,0.1,0.1,0.1,0.2,0.2c0.1,0,0.2,0,0.3-0.1c0.6-0.4,1.1-0.5,1.5-0.4
		c0.3,0.2,0.4,0.7,0.5,1.1c0,0.1,0.1,0.3,0.2,0.3c0.2,0.1,0.8,0.4,0.9,0.8c0,0.1,0,0.3-0.2,0.5h-5.7L15.7,9.2z M13.4,0.9
		c0.8,0,2,0.7,2,1.3l-0.3,4.5l-0.1,0.9L15,8.9l-0.1,0.8l-0.2,2.3l0,0.7l-0.1,1.1c0,0.7-0.6,1.3-1.3,1.3c-0.7,0-1.3-0.6-1.3-1.3
		l-0.1-1l0-0.7l-0.7-9.8C11.4,1.5,12.6,0.9,13.4,0.9z M5.1,5.5L3.3,3.6h1.1c0.2,0,0.3-0.1,0.3-0.3l0.2-1.1l0.8,3.1c0,0,0,0,0,0
		L5.1,5.6C5.1,5.6,5.1,5.5,5.1,5.5z M5.7,6c0.4-0.4,1-0.4,1-0.4c2.4,0.5,4,4.9,4.4,6.3H6c-0.2-0.8-0.5-1.6-0.6-2.5
		C5,7.3,5.4,6.3,5.7,6z M22.3,27.3H5.2l-0.7-3h5.9c0.2,0,0.4-0.2,0.4-0.4c0-0.2-0.2-0.4-0.4-0.4h-6L3.7,21h13.6
		c0.2,0,0.4-0.2,0.4-0.4c0-0.2-0.2-0.4-0.4-0.4H3.6l-0.6-2.8h21L22.3,27.3z M23.9,16.8H8.4H7.6H3.1c-1.3,0-2.4-0.9-2.4-2.1
		c0-1.1,1.1-2.1,2.4-2.1h2.3h0.8h5.1l0.1,1.1c0,1.1,0.9,2,2,2s2-0.9,2-2l0.1-1.1h8.4c1.3,0,2.4,0.9,2.4,2.1
		C26.3,15.8,25.2,16.8,23.9,16.8z"/>
</g>
</svg>
