<?xml version="1.0" encoding="utf-8"?>
<!-- Generator: Adobe Illustrator 24.1.0, SVG Export Plug-In . SVG Version: 6.00 Build 0)  -->
<svg version="1.1" id="Capa_1" xmlns="http://www.w3.org/2000/svg" xmlns:xlink="http://www.w3.org/1999/xlink" x="0px" y="0px"
	 viewBox="0 0 13.1 42.35" style="enable-background:new 0 0 13.1 42.35;" xml:space="preserve">
<path d="M13.1,15.95c0-2.5-2.25-4-2.64-4.25c-1.1-1.06-1.42-2.98-1.42-2.98V1.68c0,0,0-0.01,0-0.02L9,0.51C8.99,0.22,8.76,0,8.48,0
	H4.66C4.37,0,4.14,0.23,4.14,0.52l0,6.23c0,0.01,0,0.01,0,0.02c0,0.01,0,0.01,0,0.02l0,1.76c0,0.02-0.3,1.94-1.42,3
	c-0.39,0.24-2.65,1.72-2.65,4.18v13.23C0.03,29.03,0,29.11,0,29.2s0.03,0.17,0.07,0.25v12.38c0,0.29,0.23,0.52,0.52,0.52h11.98
	c0.29,0,0.52-0.23,0.52-0.52V15.95z M1.11,20.39h10.94v8.29H1.11V20.39z M7.97,1.04l0.02,5.21H5.18V1.04H7.97z M3.29,12.42
	c0.03-0.02,0.06-0.04,0.09-0.07c1.42-1.29,1.78-3.55,1.8-3.72V7.29h2.81l0,1.5c0.01,0.1,0.37,2.39,1.79,3.7
	c0.03,0.03,0.06,0.05,0.09,0.07c0.02,0.01,2.18,1.31,2.18,3.38v3.4H1.11v-3.62C1.11,13.7,3.27,12.43,3.29,12.42z M1.11,41.31V29.73
	h10.94v11.58H1.11z"/>
</svg>
