<?xml version="1.0" encoding="utf-8"?>
<!-- Generator: Adobe Illustrator 24.1.0, SVG Export Plug-In . SVG Version: 6.00 Build 0)  -->
<svg version="1.1" id="Calque_1" xmlns="http://www.w3.org/2000/svg" xmlns:xlink="http://www.w3.org/1999/xlink" x="0px" y="0px"
	 viewBox="0 0 13.14 18.26" style="enable-background:new 0 0 13.14 18.26;" xml:space="preserve">
<path d="M10.47,8.76C8.9,7.41,8.85,5.44,8.85,5.44v-5.2C8.85,0.11,8.74,0,8.6,0C8.47,0,8.36,0.11,8.36,0.24l0,5.24
	c0.02,0.1,0.11,2.3,1.79,3.65c0.01,0.01,0.03,0.02,0.04,0.03c0.02,0.01,2.45,1.87,2.45,3.75v0.72H0.49v-0.94
	c0-1.9,2.43-3.67,2.45-3.68C2.96,9,2.97,8.99,2.98,8.97c1.62-1.19,1.78-3.49,1.8-3.62V0.24C4.78,0.11,4.67,0,4.54,0
	S4.29,0.11,4.29,0.24l0,5.08c0,0.02-0.18,2.16-1.62,3.29C2.39,8.77,0,10.6,0,12.69v1.18c0,0,0,0,0,0s0,0,0,0v3.84
	c0,0.13,0.11,0.24,0.24,0.24s0.24-0.11,0.24-0.24v-3.6h12.16v3.92c0,0.13,0.11,0.24,0.24,0.24s0.24-0.11,0.24-0.24v-5.11
	C13.14,10.67,10.75,8.93,10.47,8.76z"/>
</svg>
