<?xml version="1.0" encoding="utf-8"?>
<!-- Generator: Adobe Illustrator 24.0.1, SVG Export Plug-In . SVG Version: 6.00 Build 0)  -->
<svg version="1.1" id="Calque_1" xmlns="http://www.w3.org/2000/svg" xmlns:xlink="http://www.w3.org/1999/xlink" x="0px" y="0px"
	 viewBox="0 0 24 16.9" style="enable-background:new 0 0 24 16.9;" xml:space="preserve">
<style type="text/css">
	.st0{enable-background:new    ;}
</style>
<g class="st0">
	<g>
		<path d="M24,8.5c0,0,0,3.9-0.5,5.8c-0.3,1-1.1,1.8-2.1,2.1c-1.9,0.5-9.4,0.5-9.4,0.5s-7.5,0-9.4-0.5c-1-0.3-1.8-1.1-2.1-2.1
			C0,12.4,0,8.5,0,8.5s0-3.9,0.5-5.8c0.3-1,1.1-1.9,2.1-2.1C4.5,0,12,0,12,0s7.5,0,9.4,0.5c1,0.3,1.8,1.1,2.1,2.1
			C24,4.5,24,8.5,24,8.5z M15.8,8.5L9.5,4.9V12L15.8,8.5z"/>
	</g>
</g>
</svg>
